<?xml version="1.0" encoding="UTF-8" standalone="no"?>
<svg
   version="1.0"
   width="300.000000pt"
   height="300.000000pt"
   viewBox="0 0 300.000000 300.000000"
   preserveAspectRatio="xMidYMid meet"
   id="svg5"
   sodipodi:docname="mylogo2.svg"
   inkscape:version="1.3.2 (091e20e, 2023-11-25, custom)"
   xmlns:inkscape="http://www.inkscape.org/namespaces/inkscape"
   xmlns:sodipodi="http://sodipodi.sourceforge.net/DTD/sodipodi-0.dtd"
   xmlns="http://www.w3.org/2000/svg"
   xmlns:svg="http://www.w3.org/2000/svg">
  <defs
     id="defs5" />
  <sodipodi:namedview
     id="namedview5"
     pagecolor="#ffffff"
     bordercolor="#000000"
     borderopacity="0.25"
     inkscape:showpageshadow="2"
     inkscape:pageopacity="0.0"
     inkscape:pagecheckerboard="0"
     inkscape:deskcolor="#d1d1d1"
     inkscape:document-units="pt"
     inkscape:zoom="3.1975"
     inkscape:cx="200"
     inkscape:cy="200"
     inkscape:window-width="2880"
     inkscape:window-height="1514"
     inkscape:window-x="-11"
     inkscape:window-y="-11"
     inkscape:window-maximized="1"
     inkscape:current-layer="g5" />
  <g
     transform="translate(0.000000,300.000000) scale(0.100000,-0.100000)"
     fill="#000000"
     stroke="none"
     id="g5">
    <path
       d="M2619 2461 c20 -13 40 -146 40 -266 1 -125 -17 -210 -64 -310 -45 -93 -139 -193 -235 -250 -67 -39 -229 -95 -335 -117 l-60 -12 125 -9 c172 -11 455 -4 475 13 8 7 18 11 20 8 15 -14 35 -173 35 -266 -2 -358 -189 -566 -596 -663 -186 -44 -271 -50 -809 -59 -716 -12 -826 -28 -931 -135 -37 -37 -41 -45 -25 -45 11 0 30 13 42 30 23 31 82 63 159 87 98 31 279 42 699 42 227 1 416 3 420 5 3 2 59 7 124 11 65 4 123 8 130 9 12 3 49 9 152 27 111 19 155 31 155 41 0 6 6 8 14 5 7 -3 17 -2 22 3 5 4 32 15 61 24 28 10 62 25 75 34 13 10 35 24 51 31 15 8 27 18 27 23 0 4 6 8 14 8 16 0 118 107 140 147 8 16 23 44 32 63 9 19 20 43 25 52 5 10 9 29 9 42 0 13 5 26 11 28 8 3 12 52 13 153 1 177 -9 277 -32 305 -16 20 -19 20 -67 5 -72 -21 -352 -22 -352 0 0 8 7 15 15 15 8 0 36 11 63 25 27 13 49 22 49 20 0 -9 96 48 113 67 9 11 17 17 17 12 0 -5 23 14 51 41 56 56 119 145 119 170 0 9 4 14 9 11 5 -3 11 7 14 22 3 15 12 54 21 87 24 85 30 195 18 310 -13 118 -28 165 -50 165 -14 0 -14 -2 -3 -9z"
       id="path1"
       style="fill:#00ffff" />
    <path
       d="M2557 2401 c-47 -73 -116 -138 -187 -175 -30 -16 -57 -32 -60 -36 -8 -10 -149 -56 -210 -68 -128 -25 -294 -32 -725 -30 -322 2 -463 0 -495 -9 -25 -6 -73 -17 -108 -24 -34 -6 -65 -16 -68 -21 -3 -4 -10 -6 -15 -3 -5 4 -9 1 -9 -4 0 -6 -4 -11 -9 -11 -5 0 -22 -5 -38 -12 -15 -6 -30 -12 -33 -13 -23 -5 -77 -43 -123 -84 -51 -48 -137 -165 -137 -188 0 -6 -9 -31 -21 -57 -22 -50 -36 -119 -49 -236 -4 -41 -11 -82 -14 -91 -4 -9 1 -25 11 -37 15 -17 33 -22 107 -27 50 -3 119 -10 155 -15 36 -5 85 -10 109 -10 23 0 42 -5 42 -11 0 -5 3 -8 8 -6 11 8 209 -13 317 -33 l40 -7 -52 -2 c-29 0 -53 -5 -53 -11 0 -5 -14 -10 -31 -10 -44 0 -162 -22 -173 -32 -6 -4 -20 -8 -33 -8 -13 0 -31 -4 -41 -8 -126 -60 -163 -84 -222 -142 -121 -118 -168 -225 -195 -445 -19 -161 -19 -161 -1 -146 12 10 16 31 16 87 0 186 79 385 198 496 97 91 219 143 422 179 52 10 162 14 360 13 157 0 278 1 270 2 -8 2 -98 13 -200 24 -102 12 -358 41 -570 66 -212 24 -404 44 -427 44 -40 0 -52 8 -36 23 4 4 8 38 9 75 5 142 48 280 124 396 99 152 266 240 525 276 39 5 280 10 538 10 582 0 680 12 866 101 65 32 100 58 160 117 80 81 114 130 103 149 -5 7 -22 -11 -45 -46z"
       id="path2"
       style="fill:#00ffff" />
    <path
       d="M2577 2343 c-105 -144 -269 -230 -517 -275 -106 -18 -151 -20 -566 -19 -249 1 -490 -3 -540 -9 -204 -23 -355 -82 -453 -178 -97 -96 -149 -211 -177 -392 -18 -121 -18 -117 9 -93 46 43 126 72 257 94 36 6 301 14 590 19 350 6 569 14 656 24 206 24 400 81 524 153 108 63 204 184 241 302 24 76 35 258 22 361 l-8 65 -38 -52z m33 -152 c0 -130 -13 -189 -61 -288 -36 -74 -131 -177 -196 -213 -58 -32 -116 -62 -138 -71 -33 -15 -178 -49 -207 -49 -15 0 -30 -5 -33 -10 -4 -6 -12 -10 -18 -8 -7 1 -41 -3 -77 -10 -117 -22 -339 -32 -695 -32 -364 0 -541 -10 -660 -36 -38 -9 -82 -18 -98 -21 -15 -3 -30 -9 -33 -14 -3 -5 -16 -9 -30 -9 -24 0 -24 2 -19 53 8 75 31 153 56 197 5 8 18 34 29 58 25 50 117 144 174 176 90 50 102 55 118 56 9 0 20 5 23 10 3 6 21 10 39 10 17 0 36 4 42 9 23 21 276 31 711 29 351 -2 455 0 464 10 7 6 28 12 47 12 36 0 201 38 217 50 6 4 31 13 57 21 26 7 44 17 42 21 -3 4 2 8 11 8 22 0 122 70 168 117 61 64 67 58 67 -76z"
       id="path3"
       style="fill:#00ffff" />
    <path
       d="M1835 1488 c-95 -14 -470 -28 -785 -28 -335 0 -470 -12 -590 -49 -66 -21 -140 -64 -140 -81 0 -6 20 -10 44 -10 39 0 213 -18 486 -50 47 -5 128 -14 180 -20 229 -25 444 -52 553 -70 191 -32 381 -24 572 25 146 37 217 76 319 177 49 49 87 90 85 93 -3 2 -49 -1 -104 -7 -75 -9 -148 -8 -300 1 -110 6 -216 15 -235 19 -19 5 -57 5 -85 0z m383 -34 c144 -4 265 -11 268 -16 18 -29 -163 -162 -248 -183 -16 -4 -28 -11 -28 -17 0 -5 -6 -8 -12 -7 -7 1 -20 -1 -28 -4 -86 -36 -398 -60 -493 -38 -28 6 -110 18 -182 26 -71 8 -143 16 -160 19 -16 3 -93 12 -170 21 -77 9 -176 20 -220 25 -99 11 -234 26 -385 41 -63 6 -128 17 -145 25 -22 10 -25 14 -11 14 11 0 16 3 13 7 -12 11 93 42 202 59 81 12 229 18 633 23 290 4 531 11 535 15 5 5 44 5 88 2 44 -3 198 -9 343 -12z"
       id="path4"
       style="fill:#00ffff" />
    <path
       d="M2552 1428 c-71 -115 -260 -228 -452 -270 -102 -22 -122 -23 -620 -24 -517 -1 -602 -5 -737 -40 -101 -25 -199 -80 -273 -153 -70 -69 -102 -122 -139 -230 -22 -64 -56 -259 -47 -268 3 -3 18 4 35 16 51 36 140 63 276 82 38 5 306 14 595 18 391 7 557 13 650 26 428 56 666 215 735 490 19 75 24 288 8 355 l-9 34 -22 -36z m22 -117 c7 -61 -1 -189 -14 -206 -4 -5 -13 -36 -20 -67 -7 -32 -17 -58 -22 -58 -4 0 -8 -9 -8 -20 0 -11 -4 -20 -10 -20 -5 0 -10 -4 -10 -10 0 -20 -91 -118 -150 -161 -48 -35 -184 -99 -209 -99 -12 0 -21 -4 -21 -9 0 -5 -17 -11 -37 -14 -190 -29 -261 -41 -278 -47 -33 -14 -172 -20 -591 -25 -590 -8 -663 -13 -795 -56 -102 -33 -96 -34 -95 27 0 30 3 54 6 54 4 0 12 29 19 65 7 36 17 68 22 71 5 3 9 14 9 25 0 10 5 19 10 19 6 0 10 7 10 15 0 39 128 176 193 206 15 7 27 16 27 21 0 4 7 8 15 8 8 0 23 4 33 10 9 5 55 20 102 34 140 41 261 50 565 40 313 -10 432 -8 605 7 122 10 277 40 312 59 10 6 24 10 31 10 35 0 156 75 227 139 24 23 49 41 56 41 7 0 14 -25 18 -59z"
       id="path5"
       style="fill:#00ffff" />
  </g>
</svg>
